<?xml version="1.0" encoding="utf-8"?>
<!-- Generator: Adobe Illustrator 24.1.0, SVG Export Plug-In . SVG Version: 6.00 Build 0)  -->
<svg version="1.1" id="Layer_1" focusable="false" xmlns="http://www.w3.org/2000/svg" xmlns:xlink="http://www.w3.org/1999/xlink"
	 x="0px" y="0px" viewBox="0 0 448 512" style="enable-background:new 0 0 448 512;" xml:space="preserve">
<style type="text/css">
	.st0{fill:#E7E8E8;}
</style>
<path class="st0" d="M154.9,187.8c14.7,1.5,28.7-7,34.2-20.7l32.5-81c6-14.9,0.4-31.9-13.3-40.5l-65-40.5
	c-13.2-8.2-30.1-6.3-41.1,4.7C-34.3,146-34,366.4,102.2,502.3c11,11,27.9,12.9,41.1,4.7l65-40.5C222,458,227.5,441,221.6,426
	l-32.5-81c-5.5-13.6-19.5-22.1-34.2-20.7l-43.2,4.3c-14.5-47.2-14.5-97.9,0-145.1L154.9,187.8z M89.8,362.9l68.4-6.8
	c0.5-0.1,1,0.2,1.2,0.7l32.5,81c0.2,0.5,0,1.1-0.5,1.4l-65,40.5c-0.5,0.3-1.1,0.2-1.5-0.2C1,356,1.1,155.9,124.9,32.4
	c0.4-0.4,1-0.5,1.5-0.2l65,40.5c0.5,0.3,0.7,0.9,0.5,1.4l-32.5,81c-0.2,0.5-0.7,0.8-1.2,0.7L89.8,149
	C61.1,228.1,62.2,286.9,89.8,362.9z M292.2,92.9l-6,5.7c-3.9,3.7-4.8,9.6-2.3,14.4c4.9,9.4,4.9,20.6,0,29.9
	c-2.5,4.8-1.6,10.7,2.3,14.4l6,5.7c5.6,5.4,14.8,4.1,18.7-2.6c11.8-20,11.8-45,0-65.1C307,88.8,297.9,87.5,292.2,92.9L292.2,92.9z
	 M357,49.2c-4.4-5.6-12.7-6.3-17.9-1.3l-5.8,5.6c-4.4,4.2-5,11.1-1.3,15.9c26.5,34.6,26.5,82.6,0,117.1c-3.7,4.8-3.1,11.7,1.3,15.9
	l5.8,5.6c5.2,4.9,13.5,4.3,17.9-1.3C393.1,160.5,393.1,95.6,357,49.2z M402.9,4.3c-4.5-5.3-12.5-5.7-17.6-0.9L379.5,9
	c-4.6,4.4-5,11.5-0.9,16.4c49.7,59.5,49.6,145.9,0,205.4c-4,4.8-3.6,12,0.9,16.4l5.8,5.6c5,4.8,13.1,4.4,17.6-0.9
	C463.1,180.1,463,75.8,402.9,4.3L402.9,4.3z"/>
</svg>
